{
  "accessors": [
    {
      "bufferView": 2,
      "componentType": 5126,
      "count": 4496,
      "max": [
        22.039419174194336,
        5.0,
        47.5117301940918
      ],
      "min": [
        -22.039419174194336,
        -5.0,
        -46.75513458251953
      ],
      "type": "VEC3"
    },
    {
      "bufferView": 2,
      "byteOffset": 53952,
      "componentType": 5126,
      "count": 4496,
      "max": [
        1.0,
        1.0,
        0.9998925924301147
      ],
      "min": [
        -1.0,
        -0.9986353516578674,
        -0.9998925924301147
      ],
      "type": "VEC3"
    },
    {
      "bufferView": 3,
      "componentType": 5126,
      "count": 4496,
      "max": [
        0.9999992847442627,
        1.0,
        1.0,
        1.0
      ],
      "min": [
        -0.9999993443489075,
        -0.9233620166778564,
        -0.9995282292366028,
        -1.0
      ],
      "type": "VEC4"
    },
    {
      "bufferView": 1,
      "componentType": 5126,
      "count": 4496,
      "max": [
        0.972835123538971,
        0.987868070602417
      ],
      "min": [
        0.012131936848163605,
        0.003632783889770508
      ],
      "type": "VEC2"
    },
    {
      "bufferView": 0,
      "componentType": 5125,
      "count": 14274,
      "type": "SCALAR"
    },
    {
      "bufferView": 2,
      "byteOffset": 107904,
      "componentType": 5126,
      "count": 4496,
      "max": [
        22.039419174194336,
        5.0,
        47.5117301940918
      ],
      "min": [
        -22.039419174194336,
        -5.0,
        -46.75513458251953
      ],
      "type": "VEC3"
    },
    {
      "bufferView": 2,
      "byteOffset": 161856,
      "componentType": 5126,
      "count": 4496,
      "max": [
        1.0,
        1.0,
        0.9998925924301147
      ],
      "min": [
        -1.0,
        -0.9986353516578674,
        -0.9998925924301147
      ],
      "type": "VEC3"
    },
    {
      "bufferView": 3,
      "byteOffset": 71936,
      "componentType": 5126,
      "count": 4496,
      "max": [
        0.9999992847442627,
        1.0,
        1.0,
        1.0
      ],
      "min": [
        -0.9999993443489075,
        -0.9233620166778564,
        -0.9995282292366028,
        -1.0
      ],
      "type": "VEC4"
    },
    {
      "bufferView": 1,
      "byteOffset": 35968,
      "componentType": 5126,
      "count": 4496,
      "max": [
        0.972835123538971,
        0.987868070602417
      ],
      "min": [
        0.012131936848163605,
        0.003632783889770508
      ],
      "type": "VEC2"
    },
    {
      "bufferView": 0,
      "byteOffset": 57096,
      "componentType": 5125,
      "count": 14274,
      "type": "SCALAR"
    },
    {
      "bufferView": 2,
      "byteOffset": 215808,
      "componentType": 5126,
      "count": 65532,
      "max": [
        1232.0394287109375,
        5.0,
        47.5117301940918
      ],
      "min": [
        -44.0394172668457,
        -5.0,
        -46.75513458251953
      ],
      "type": "VEC3"
    },
    {
      "bufferView": 2,
      "byteOffset": 1002192,
      "componentType": 5126,
      "count": 65532,
      "max": [
        1.0,
        1.0,
        0.9998928308486938
      ],
      "min": [
        -1.0,
        -0.9986355900764465,
        -0.9998928308486938
      ],
      "type": "VEC3"
    },
    {
      "bufferView": 3,
      "byteOffset": 143872,
      "componentType": 5126,
      "count": 65532,
      "max": [
        0.9999993443489075,
        1.0,
        1.0,
        1.0
      ],
      "min": [
        -0.9999993443489075,
        -0.9233620166778564,
        -0.9995307922363281,
        -1.0
      ],
      "type": "VEC4"
    },
    {
      "bufferView": 1,
      "byteOffset": 71936,
      "componentType": 5126,
      "count": 65532,
      "max": [
        0.972835123538971,
        0.987868070602417
      ],
      "min": [
        0.012131936848163605,
        0.012131929397583008
      ],
      "type": "VEC2"
    },
    {
      "bufferView": 0,
      "byteOffset": 114192,
      "componentType": 5125,
      "count": 207978,
      "type": "SCALAR"
    },
    {
      "bufferView": 2,
      "byteOffset": 1788576,
      "componentType": 5126,
      "count": 1954,
      "max": [
        1136.39111328125,
        3.77113938331604,
        27.374940872192383
      ],
      "min": [
        1107.60888671875,
        -1.7443169355392456,
        -27.374940872192383
      ],
      "type": "VEC3"
    },
    {
      "bufferView": 2,
      "byteOffset": 1812024,
      "componentType": 5126,
      "count": 1954,
      "max": [
        1.0,
        0.9988825917243958,
        0.9998927116394043
      ],
      "min": [
        -1.0,
        -0.998634397983551,
        -0.9998927116394043
      ],
      "type": "VEC3"
    },
    {
      "bufferView": 3,
      "byteOffset": 1192384,
      "componentType": 5126,
      "count": 1954,
      "max": [
        0.9999992847442627,
        0.99979567527771,
        0.9995176792144775,
        1.0
      ],
      "min": [
        -0.9999993443489075,
        -0.894746720790863,
        -0.9995176792144775,
        -1.0
      ],
      "type": "VEC4"
    },
    {
      "bufferView": 1,
      "byteOffset": 596192,
      "componentType": 5126,
      "count": 1954,
      "max": [
        0.32701095938682556,
        0.3438788652420044
      ],
      "min": [
        0.01925165019929409,
        0.013797163963317871
      ],
      "type": "VEC2"
    },
    {
      "bufferView": 0,
      "byteOffset": 946104,
      "componentType": 5125,
      "count": 6177,
      "type": "SCALAR"
    },
    {
      "bufferView": 2,
      "byteOffset": 1835472,
      "componentType": 5126,
      "count": 65532,
      "max": [
        1276.0394287109375,
        5.0,
        47.5117301940918
      ],
      "min": [
        -0.039418503642082214,
        -5.0,
        -46.75513458251953
      ],
      "type": "VEC3"
    },
    {
      "bufferView": 2,
      "byteOffset": 2621856,
      "componentType": 5126,
      "count": 65532,
      "max": [
        1.0,
        1.0,
        0.9998928308486938
      ],
      "min": [
        -1.0,
        -0.9986355900764465,
        -0.9998928308486938
      ],
      "type": "VEC3"
    },
    {
      "bufferView": 3,
      "byteOffset": 1223648,
      "componentType": 5126,
      "count": 65532,
      "max": [
        0.9999993443489075,
        0.99979567527771,
        1.0,
        1.0
      ],
      "min": [
        -0.9999993443489075,
        -0.9233620166778564,
        -0.9995307922363281,
        -1.0
      ],
      "type": "VEC4"
    },
    {
      "bufferView": 1,
      "byteOffset": 611824,
      "componentType": 5126,
      "count": 65532,
      "max": [
        0.9544409513473511,
        0.987868070602417
      ],
      "min": [
        0.012131936848163605,
        0.003632783889770508
      ],
      "type": "VEC2"
    },
    {
      "bufferView": 0,
      "byteOffset": 970812,
      "componentType": 5125,
      "count": 207978,
      "type": "SCALAR"
    },
    {
      "bufferView": 2,
      "byteOffset": 3408240,
      "componentType": 5126,
      "count": 1927,
      "max": [
        1180.39111328125,
        3.77113938331604,
        27.374940872192383
      ],
      "min": [
        1151.60888671875,
        -1.7443169355392456,
        -27.374940872192383
      ],
      "type": "VEC3"
    },
    {
      "bufferView": 2,
      "byteOffset": 3431364,
      "componentType": 5126,
      "count": 1927,
      "max": [
        1.0,
        0.9988825917243958,
        0.9998927116394043
      ],
      "min": [
        -1.0,
        -0.998634397983551,
        -0.9998927116394043
      ],
      "type": "VEC3"
    },
    {
      "bufferView": 3,
      "byteOffset": 2272160,
      "componentType": 5126,
      "count": 1927,
      "max": [
        0.9999992847442627,
        0.99979567527771,
        0.9995176792144775,
        1.0
      ],
      "min": [
        -0.9999993443489075,
        -0.894746720790863,
        -0.9995176792144775,
        -1.0
      ],
      "type": "VEC4"
    },
    {
      "bufferView": 1,
      "byteOffset": 1136080,
      "componentType": 5126,
      "count": 1927,
      "max": [
        0.32701095938682556,
        0.3438788652420044
      ],
      "min": [
        0.01925165019929409,
        0.013797163963317871
      ],
      "type": "VEC2"
    },
    {
      "bufferView": 0,
      "byteOffset": 1802724,
      "componentType": 5125,
      "count": 6087,
      "type": "SCALAR"
    }
  ],
  "asset": {
    "extras": {
      "author": "Mehdi Shahsavan (https://sketchfab.com/ahmagh2e)",
      "license": "CC-BY-4.0 (http://creativecommons.org/licenses/by/4.0/)",
      "source": "https://sketchfab.com/3d-models/speed-bump-bump-the-traffic-avenue-13mb-5cab02a4935044218cec674e29f2df0c",
      "title": "speed bump Bump the traffic Avenue_13MB"
    },
    "generator": "Sketchfab-16.33.0",
    "version": "2.0"
  },
  "bufferViews": [
    {
      "buffer": 0,
      "byteLength": 1827072,
      "name": "floatBufferViews",
      "target": 34963
    },
    {
      "buffer": 0,
      "byteLength": 1151496,
      "byteOffset": 1827072,
      "byteStride": 8,
      "name": "floatBufferViews",
      "target": 34962
    },
    {
      "buffer": 0,
      "byteLength": 3454488,
      "byteOffset": 2978568,
      "byteStride": 12,
      "name": "floatBufferViews",
      "target": 34962
    },
    {
      "buffer": 0,
      "byteLength": 2302992,
      "byteOffset": 6433056,
      "byteStride": 16,
      "name": "floatBufferViews",
      "target": 34962
    }
  ],
  "buffers": [
    {
      "byteLength": 8736048,
      "uri": "scene.bin"
    }
  ],
  "images": [
    {
      "uri": "textures/material_baseColor.png"
    },
    {
      "uri": "textures/material_metallicRoughness.png"
    },
    {
      "uri": "textures/material_normal.png"
    },
    {
      "uri": "textures/material_1_baseColor.png"
    },
    {
      "uri": "textures/material_1_metallicRoughness.png"
    }
  ],
  "materials": [
    {
      "doubleSided": true,
      "name": "material",
      "normalTexture": {
        "index": 2
      },
      "pbrMetallicRoughness": {
        "baseColorTexture": {
          "index": 0
        },
        "metallicRoughnessTexture": {
          "index": 1
        }
      }
    },
    {
      "doubleSided": true,
      "name": "material_1",
      "normalTexture": {
        "index": 2
      },
      "pbrMetallicRoughness": {
        "baseColorTexture": {
          "index": 3
        },
        "metallicRoughnessTexture": {
          "index": 4
        }
      }
    }
  ],
  "meshes": [
    {
      "name": "01_01_0",
      "primitives": [
        {
          "attributes": {
            "NORMAL": 1,
            "POSITION": 0,
            "TANGENT": 2,
            "TEXCOORD_0": 3
          },
          "indices": 4,
          "material": 0,
          "mode": 4
        }
      ]
    },
    {
      "name": "02_02_0",
      "primitives": [
        {
          "attributes": {
            "NORMAL": 6,
            "POSITION": 5,
            "TANGENT": 7,
            "TEXCOORD_0": 8
          },
          "indices": 9,
          "material": 1,
          "mode": 4
        }
      ]
    },
    {
      "name": "Cloner_02_0",
      "primitives": [
        {
          "attributes": {
            "NORMAL": 11,
            "POSITION": 10,
            "TANGENT": 12,
            "TEXCOORD_0": 13
          },
          "indices": 14,
          "material": 1,
          "mode": 4
        }
      ]
    },
    {
      "name": "Cloner_02_0",
      "primitives": [
        {
          "attributes": {
            "NORMAL": 16,
            "POSITION": 15,
            "TANGENT": 17,
            "TEXCOORD_0": 18
          },
          "indices": 19,
          "material": 1,
          "mode": 4
        }
      ]
    },
    {
      "name": "Cloner_01_0",
      "primitives": [
        {
          "attributes": {
            "NORMAL": 21,
            "POSITION": 20,
            "TANGENT": 22,
            "TEXCOORD_0": 23
          },
          "indices": 24,
          "material": 0,
          "mode": 4
        }
      ]
    },
    {
      "name": "Cloner_01_0",
      "primitives": [
        {
          "attributes": {
            "NORMAL": 26,
            "POSITION": 25,
            "TANGENT": 27,
            "TEXCOORD_0": 28
          },
          "indices": 29,
          "material": 0,
          "mode": 4
        }
      ]
    }
  ],
  "nodes": [
    {
      "children": [
        1
      ],
      "matrix": [
        1.0,
        0.0,
        0.0,
        0.0,
        0.0,
        2.220446049250313e-16,
        -1.0,
        0.0,
        0.0,
        1.0,
        2.220446049250313e-16,
        0.0,
        0.0,
        0.0,
        0.0,
        1.0
      ],
      "name": "Sketchfab_model"
    },
    {
      "children": [
        2
      ],
      "matrix": [
        0.009999999776482582,
        0.0,
        0.0,
        0.0,
        0.0,
        0.0,
        0.009999999776482582,
        0.0,
        0.0,
        -0.009999999776482582,
        0.0,
        0.0,
        0.0,
        0.0,
        0.0,
        1.0
      ],
      "name": "c0312c9600ae48ef8bbebe1187f19638.fbx"
    },
    {
      "children": [
        3,
        5,
        7
      ],
      "name": "RootNode"
    },
    {
      "children": [
        4
      ],
      "matrix": [
        1.0,
        0.0,
        0.0,
        0.0,
        0.0,
        1.0,
        0.0,
        0.0,
        0.0,
        0.0,
        1.0,
        0.0,
        0.0,
        -4.440892098500626e-16,
        -151.136474609375,
        1.0
      ],
      "name": "01"
    },
    {
      "mesh": 0,
      "name": "01_01_0"
    },
    {
      "children": [
        6
      ],
      "matrix": [
        1.0,
        0.0,
        0.0,
        0.0,
        0.0,
        1.0,
        0.0,
        0.0,
        0.0,
        0.0,
        1.0,
        0.0,
        76.85822296142578,
        -4.440892098500626e-16,
        -151.136474609375,
        1.0
      ],
      "name": "02"
    },
    {
      "mesh": 1,
      "name": "02_02_0"
    },
    {
      "children": [
        8,
        9,
        10,
        11
      ],
      "matrix": [
        1.0,
        0.0,
        0.0,
        0.0,
        0.0,
        1.0,
        0.0,
        0.0,
        0.0,
        0.0,
        1.0,
        0.0,
        22.0,
        -4.440892098500626e-16,
        0.0,
        1.0
      ],
      "name": "Cloner"
    },
    {
      "mesh": 2,
      "name": "Cloner_02_0"
    },
    {
      "mesh": 3,
      "name": "Cloner_02_0"
    },
    {
      "mesh": 4,
      "name": "Cloner_01_0"
    },
    {
      "mesh": 5,
      "name": "Cloner_01_0"
    }
  ],
  "samplers": [
    {
      "magFilter": 9729,
      "minFilter": 9987,
      "wrapS": 10497,
      "wrapT": 10497
    }
  ],
  "scene": 0,
  "scenes": [
    {
      "name": "Sketchfab_Scene",
      "nodes": [
        0
      ]
    }
  ],
  "textures": [
    {
      "sampler": 0,
      "source": 0
    },
    {
      "sampler": 0,
      "source": 1
    },
    {
      "sampler": 0,
      "source": 2
    },
    {
      "sampler": 0,
      "source": 3
    },
    {
      "sampler": 0,
      "source": 4
    }
  ]
}
